<mxfile host="app.diagrams.net" agent="Mozilla/5.0 (Macintosh; Intel Mac OS X 10_15_7) AppleWebKit/537.36 (KHTML, like Gecko) Chrome/138.0.0.0 Safari/537.36" version="28.0.7">
  <diagram id="jpseGgJm6e-avmQmuACF" name="Page-1">
    <mxGraphModel dx="899" dy="1175" grid="1" gridSize="10" guides="1" tooltips="1" connect="1" arrows="1" fold="1" page="1" pageScale="1" pageWidth="850" pageHeight="1100" math="0" shadow="0">
      <root>
        <mxCell id="0" />
        <mxCell id="1" parent="0" />
        <mxCell id="ZztepuW2MVFX9YXNAIIB-1" value="Клиент" style="shape=umlActor;verticalLabelPosition=bottom;verticalAlign=top;html=1;outlineConnect=0;" vertex="1" parent="1">
          <mxGeometry x="227" y="550" width="30" height="60" as="geometry" />
        </mxCell>
        <mxCell id="ZztepuW2MVFX9YXNAIIB-2" value="" style="rounded=0;whiteSpace=wrap;html=1;" vertex="1" parent="1">
          <mxGeometry x="300" y="310" width="520" height="540" as="geometry" />
        </mxCell>
        <mxCell id="ZztepuW2MVFX9YXNAIIB-3" value="Информационная система сети франчайзинговых кофеен" style="text;html=1;align=center;verticalAlign=middle;whiteSpace=wrap;rounded=0;" vertex="1" parent="1">
          <mxGeometry x="395" y="310" width="340" height="30" as="geometry" />
        </mxCell>
        <mxCell id="ZztepuW2MVFX9YXNAIIB-4" value="Авторизоваться по номеру телефона." style="ellipse;whiteSpace=wrap;html=1;" vertex="1" parent="1">
          <mxGeometry x="360" y="350" width="170" height="50" as="geometry" />
        </mxCell>
        <mxCell id="ZztepuW2MVFX9YXNAIIB-5" value="" style="endArrow=none;html=1;rounded=0;exitX=0.5;exitY=0.5;exitDx=0;exitDy=0;exitPerimeter=0;entryX=0;entryY=0.5;entryDx=0;entryDy=0;" edge="1" parent="1" source="ZztepuW2MVFX9YXNAIIB-1" target="ZztepuW2MVFX9YXNAIIB-4">
          <mxGeometry width="50" height="50" relative="1" as="geometry">
            <mxPoint x="370" y="490" as="sourcePoint" />
            <mxPoint x="420" y="440" as="targetPoint" />
          </mxGeometry>
        </mxCell>
        <mxCell id="ZztepuW2MVFX9YXNAIIB-8" value="extends" style="endArrow=block;endSize=16;endFill=0;html=1;rounded=0;exitX=0;exitY=0.5;exitDx=0;exitDy=0;entryX=0.935;entryY=0.726;entryDx=0;entryDy=0;entryPerimeter=0;" edge="1" parent="1" source="ZztepuW2MVFX9YXNAIIB-34" target="ZztepuW2MVFX9YXNAIIB-4">
          <mxGeometry width="160" relative="1" as="geometry">
            <mxPoint x="579.6800000000001" y="340" as="sourcePoint" />
            <mxPoint x="640" y="285.68000000000006" as="targetPoint" />
          </mxGeometry>
        </mxCell>
        <mxCell id="ZztepuW2MVFX9YXNAIIB-10" value="Бариста" style="shape=umlActor;verticalLabelPosition=bottom;verticalAlign=top;html=1;outlineConnect=0;" vertex="1" parent="1">
          <mxGeometry x="850" y="528" width="30" height="60" as="geometry" />
        </mxCell>
        <mxCell id="ZztepuW2MVFX9YXNAIIB-11" value="Просматривать меню кофейни" style="ellipse;whiteSpace=wrap;html=1;" vertex="1" parent="1">
          <mxGeometry x="412" y="407" width="170" height="50" as="geometry" />
        </mxCell>
        <mxCell id="ZztepuW2MVFX9YXNAIIB-12" value="Оформить заказ на самовывоз" style="ellipse;whiteSpace=wrap;html=1;" vertex="1" parent="1">
          <mxGeometry x="330" y="490" width="170" height="50" as="geometry" />
        </mxCell>
        <mxCell id="ZztepuW2MVFX9YXNAIIB-13" value="Просматривать статус текущего заказа" style="ellipse;whiteSpace=wrap;html=1;" vertex="1" parent="1">
          <mxGeometry x="559" y="535" width="170" height="50" as="geometry" />
        </mxCell>
        <mxCell id="ZztepuW2MVFX9YXNAIIB-14" value="Использовать QR-код для идентификации в кофейне" style="ellipse;whiteSpace=wrap;html=1;" vertex="1" parent="1">
          <mxGeometry x="360" y="571" width="170" height="70" as="geometry" />
        </mxCell>
        <mxCell id="ZztepuW2MVFX9YXNAIIB-15" value="Получать и тратить бонусы" style="ellipse;whiteSpace=wrap;html=1;" vertex="1" parent="1">
          <mxGeometry x="430" y="642" width="170" height="50" as="geometry" />
        </mxCell>
        <mxCell id="ZztepuW2MVFX9YXNAIIB-16" value="Просматривать историю заказов и бонусных операций" style="ellipse;whiteSpace=wrap;html=1;" vertex="1" parent="1">
          <mxGeometry x="360" y="695" width="170" height="70" as="geometry" />
        </mxCell>
        <mxCell id="ZztepuW2MVFX9YXNAIIB-19" value="Получать уведомления об акциях" style="ellipse;whiteSpace=wrap;html=1;" vertex="1" parent="1">
          <mxGeometry x="340" y="780" width="170" height="50" as="geometry" />
        </mxCell>
        <mxCell id="ZztepuW2MVFX9YXNAIIB-22" value="" style="endArrow=none;html=1;rounded=0;entryX=0.5;entryY=0.5;entryDx=0;entryDy=0;entryPerimeter=0;exitX=1;exitY=0.5;exitDx=0;exitDy=0;" edge="1" parent="1" source="ZztepuW2MVFX9YXNAIIB-15" target="ZztepuW2MVFX9YXNAIIB-10">
          <mxGeometry width="50" height="50" relative="1" as="geometry">
            <mxPoint x="360" y="550" as="sourcePoint" />
            <mxPoint x="410" y="500" as="targetPoint" />
          </mxGeometry>
        </mxCell>
        <mxCell id="ZztepuW2MVFX9YXNAIIB-23" value="" style="endArrow=none;html=1;rounded=0;entryX=0.5;entryY=0.5;entryDx=0;entryDy=0;entryPerimeter=0;exitX=1;exitY=0.5;exitDx=0;exitDy=0;" edge="1" parent="1" source="ZztepuW2MVFX9YXNAIIB-14" target="ZztepuW2MVFX9YXNAIIB-10">
          <mxGeometry width="50" height="50" relative="1" as="geometry">
            <mxPoint x="730" y="707" as="sourcePoint" />
            <mxPoint x="825" y="490" as="targetPoint" />
          </mxGeometry>
        </mxCell>
        <mxCell id="ZztepuW2MVFX9YXNAIIB-24" value="" style="endArrow=none;html=1;rounded=0;entryX=0.5;entryY=0.5;entryDx=0;entryDy=0;entryPerimeter=0;exitX=1;exitY=0.5;exitDx=0;exitDy=0;" edge="1" parent="1" source="ZztepuW2MVFX9YXNAIIB-12" target="ZztepuW2MVFX9YXNAIIB-10">
          <mxGeometry width="50" height="50" relative="1" as="geometry">
            <mxPoint x="690" y="606" as="sourcePoint" />
            <mxPoint x="855" y="450" as="targetPoint" />
          </mxGeometry>
        </mxCell>
        <mxCell id="ZztepuW2MVFX9YXNAIIB-25" value="" style="endArrow=none;html=1;rounded=0;entryX=0;entryY=0.5;entryDx=0;entryDy=0;exitX=0.5;exitY=0.5;exitDx=0;exitDy=0;exitPerimeter=0;" edge="1" parent="1" source="ZztepuW2MVFX9YXNAIIB-1" target="ZztepuW2MVFX9YXNAIIB-11">
          <mxGeometry width="50" height="50" relative="1" as="geometry">
            <mxPoint x="230" y="430" as="sourcePoint" />
            <mxPoint x="535" y="420" as="targetPoint" />
          </mxGeometry>
        </mxCell>
        <mxCell id="ZztepuW2MVFX9YXNAIIB-26" value="" style="endArrow=none;html=1;rounded=0;entryX=0;entryY=0.5;entryDx=0;entryDy=0;exitX=0.5;exitY=0.5;exitDx=0;exitDy=0;exitPerimeter=0;" edge="1" parent="1" source="ZztepuW2MVFX9YXNAIIB-1" target="ZztepuW2MVFX9YXNAIIB-12">
          <mxGeometry width="50" height="50" relative="1" as="geometry">
            <mxPoint x="300" y="468" as="sourcePoint" />
            <mxPoint x="575" y="450" as="targetPoint" />
          </mxGeometry>
        </mxCell>
        <mxCell id="ZztepuW2MVFX9YXNAIIB-27" value="" style="endArrow=none;html=1;rounded=0;entryX=0;entryY=0.5;entryDx=0;entryDy=0;exitX=0.5;exitY=0.5;exitDx=0;exitDy=0;exitPerimeter=0;" edge="1" parent="1" source="ZztepuW2MVFX9YXNAIIB-1" target="ZztepuW2MVFX9YXNAIIB-13">
          <mxGeometry width="50" height="50" relative="1" as="geometry">
            <mxPoint x="290" y="480" as="sourcePoint" />
            <mxPoint x="495" y="516" as="targetPoint" />
          </mxGeometry>
        </mxCell>
        <mxCell id="ZztepuW2MVFX9YXNAIIB-28" value="" style="endArrow=none;html=1;rounded=0;entryX=0;entryY=0.5;entryDx=0;entryDy=0;exitX=0.5;exitY=0.5;exitDx=0;exitDy=0;exitPerimeter=0;" edge="1" parent="1" source="ZztepuW2MVFX9YXNAIIB-1" target="ZztepuW2MVFX9YXNAIIB-14">
          <mxGeometry width="50" height="50" relative="1" as="geometry">
            <mxPoint x="270" y="470" as="sourcePoint" />
            <mxPoint x="545" y="563" as="targetPoint" />
          </mxGeometry>
        </mxCell>
        <mxCell id="ZztepuW2MVFX9YXNAIIB-29" value="" style="endArrow=none;html=1;rounded=0;entryX=0;entryY=0.5;entryDx=0;entryDy=0;exitX=0.5;exitY=0.5;exitDx=0;exitDy=0;exitPerimeter=0;" edge="1" parent="1" source="ZztepuW2MVFX9YXNAIIB-1" target="ZztepuW2MVFX9YXNAIIB-15">
          <mxGeometry width="50" height="50" relative="1" as="geometry">
            <mxPoint x="360" y="570" as="sourcePoint" />
            <mxPoint x="565" y="726" as="targetPoint" />
          </mxGeometry>
        </mxCell>
        <mxCell id="ZztepuW2MVFX9YXNAIIB-30" value="" style="endArrow=none;html=1;rounded=0;entryX=0;entryY=0.5;entryDx=0;entryDy=0;exitX=0.5;exitY=0.5;exitDx=0;exitDy=0;exitPerimeter=0;" edge="1" parent="1" source="ZztepuW2MVFX9YXNAIIB-1" target="ZztepuW2MVFX9YXNAIIB-16">
          <mxGeometry width="50" height="50" relative="1" as="geometry">
            <mxPoint x="240" y="500" as="sourcePoint" />
            <mxPoint x="445" y="656" as="targetPoint" />
          </mxGeometry>
        </mxCell>
        <mxCell id="ZztepuW2MVFX9YXNAIIB-31" value="" style="endArrow=none;html=1;rounded=0;entryX=0;entryY=0.5;entryDx=0;entryDy=0;exitX=0.5;exitY=0.5;exitDx=0;exitDy=0;exitPerimeter=0;" edge="1" parent="1" source="ZztepuW2MVFX9YXNAIIB-1" target="ZztepuW2MVFX9YXNAIIB-19">
          <mxGeometry width="50" height="50" relative="1" as="geometry">
            <mxPoint x="230" y="460" as="sourcePoint" />
            <mxPoint x="435" y="616" as="targetPoint" />
          </mxGeometry>
        </mxCell>
        <mxCell id="ZztepuW2MVFX9YXNAIIB-33" value="Верификация пароля" style="ellipse;whiteSpace=wrap;html=1;" vertex="1" parent="1">
          <mxGeometry x="630" y="340" width="150" height="30" as="geometry" />
        </mxCell>
        <mxCell id="ZztepuW2MVFX9YXNAIIB-34" value="Отобразить ошибку входа" style="ellipse;whiteSpace=wrap;html=1;" vertex="1" parent="1">
          <mxGeometry x="630" y="380" width="150" height="50" as="geometry" />
        </mxCell>
        <mxCell id="ZztepuW2MVFX9YXNAIIB-35" value="includes" style="endArrow=block;endSize=16;endFill=0;html=1;rounded=0;entryX=0;entryY=0.5;entryDx=0;entryDy=0;" edge="1" parent="1" source="ZztepuW2MVFX9YXNAIIB-4" target="ZztepuW2MVFX9YXNAIIB-33">
          <mxGeometry width="160" relative="1" as="geometry">
            <mxPoint x="720" y="410" as="sourcePoint" />
            <mxPoint x="610" y="360" as="targetPoint" />
          </mxGeometry>
        </mxCell>
        <mxCell id="ZztepuW2MVFX9YXNAIIB-37" value="Проверить наличие бонусов" style="ellipse;whiteSpace=wrap;html=1;" vertex="1" parent="1">
          <mxGeometry x="650" y="692" width="150" height="40" as="geometry" />
        </mxCell>
        <mxCell id="ZztepuW2MVFX9YXNAIIB-39" value="includes" style="endArrow=block;endSize=16;endFill=0;html=1;rounded=0;" edge="1" parent="1" source="ZztepuW2MVFX9YXNAIIB-15" target="ZztepuW2MVFX9YXNAIIB-37">
          <mxGeometry x="-0.1252" y="3" width="160" relative="1" as="geometry">
            <mxPoint x="580" y="671" as="sourcePoint" />
            <mxPoint x="685" y="660" as="targetPoint" />
            <mxPoint as="offset" />
          </mxGeometry>
        </mxCell>
        <mxCell id="ZztepuW2MVFX9YXNAIIB-40" value="includes" style="endArrow=block;endSize=16;endFill=0;html=1;rounded=0;" edge="1" parent="1" source="ZztepuW2MVFX9YXNAIIB-12" target="ZztepuW2MVFX9YXNAIIB-11">
          <mxGeometry x="-0.3847" y="2" width="160" relative="1" as="geometry">
            <mxPoint x="660" y="491" as="sourcePoint" />
            <mxPoint x="765" y="480" as="targetPoint" />
            <mxPoint as="offset" />
          </mxGeometry>
        </mxCell>
        <mxCell id="ZztepuW2MVFX9YXNAIIB-41" value="includes" style="endArrow=block;endSize=16;endFill=0;html=1;rounded=0;" edge="1" parent="1" source="ZztepuW2MVFX9YXNAIIB-13" target="ZztepuW2MVFX9YXNAIIB-12">
          <mxGeometry x="-0.1499" y="2" width="160" relative="1" as="geometry">
            <mxPoint x="550" y="560" as="sourcePoint" />
            <mxPoint x="576" y="530" as="targetPoint" />
            <mxPoint as="offset" />
          </mxGeometry>
        </mxCell>
        <mxCell id="ZztepuW2MVFX9YXNAIIB-42" value="Бариста" style="shape=umlActor;verticalLabelPosition=bottom;verticalAlign=top;html=1;outlineConnect=0;" vertex="1" parent="1">
          <mxGeometry x="227" y="1390" width="30" height="60" as="geometry" />
        </mxCell>
        <mxCell id="ZztepuW2MVFX9YXNAIIB-43" value="" style="rounded=0;whiteSpace=wrap;html=1;" vertex="1" parent="1">
          <mxGeometry x="300" y="1150" width="520" height="540" as="geometry" />
        </mxCell>
        <mxCell id="ZztepuW2MVFX9YXNAIIB-44" value="Информационная система сети франчайзинговых кофеен" style="text;html=1;align=center;verticalAlign=middle;whiteSpace=wrap;rounded=0;" vertex="1" parent="1">
          <mxGeometry x="395" y="1150" width="340" height="30" as="geometry" />
        </mxCell>
        <mxCell id="ZztepuW2MVFX9YXNAIIB-45" value="Авторизоваться в системе" style="ellipse;whiteSpace=wrap;html=1;" vertex="1" parent="1">
          <mxGeometry x="360" y="1190" width="170" height="50" as="geometry" />
        </mxCell>
        <mxCell id="ZztepuW2MVFX9YXNAIIB-46" value="" style="endArrow=none;html=1;rounded=0;exitX=0.5;exitY=0.5;exitDx=0;exitDy=0;exitPerimeter=0;entryX=0;entryY=0.5;entryDx=0;entryDy=0;" edge="1" parent="1" source="ZztepuW2MVFX9YXNAIIB-42" target="ZztepuW2MVFX9YXNAIIB-45">
          <mxGeometry width="50" height="50" relative="1" as="geometry">
            <mxPoint x="370" y="1330" as="sourcePoint" />
            <mxPoint x="420" y="1280" as="targetPoint" />
          </mxGeometry>
        </mxCell>
        <mxCell id="ZztepuW2MVFX9YXNAIIB-47" value="extends" style="endArrow=block;endSize=16;endFill=0;html=1;rounded=0;exitX=0;exitY=0.5;exitDx=0;exitDy=0;entryX=0.935;entryY=0.726;entryDx=0;entryDy=0;entryPerimeter=0;" edge="1" parent="1" source="ZztepuW2MVFX9YXNAIIB-67" target="ZztepuW2MVFX9YXNAIIB-45">
          <mxGeometry width="160" relative="1" as="geometry">
            <mxPoint x="579.6800000000001" y="1180" as="sourcePoint" />
            <mxPoint x="640" y="1125.68" as="targetPoint" />
          </mxGeometry>
        </mxCell>
        <mxCell id="ZztepuW2MVFX9YXNAIIB-48" value="Клиент" style="shape=umlActor;verticalLabelPosition=bottom;verticalAlign=top;html=1;outlineConnect=0;" vertex="1" parent="1">
          <mxGeometry x="850" y="1368" width="30" height="60" as="geometry" />
        </mxCell>
        <mxCell id="ZztepuW2MVFX9YXNAIIB-49" value="Создать заказ" style="ellipse;whiteSpace=wrap;html=1;" vertex="1" parent="1">
          <mxGeometry x="412" y="1247" width="170" height="50" as="geometry" />
        </mxCell>
        <mxCell id="ZztepuW2MVFX9YXNAIIB-50" value="Отсканировать QR-код клиента" style="ellipse;whiteSpace=wrap;html=1;" vertex="1" parent="1">
          <mxGeometry x="368" y="1317" width="170" height="50" as="geometry" />
        </mxCell>
        <mxCell id="ZztepuW2MVFX9YXNAIIB-51" value="Применить бонусную скидку" style="ellipse;whiteSpace=wrap;html=1;" vertex="1" parent="1">
          <mxGeometry x="559" y="1375" width="170" height="50" as="geometry" />
        </mxCell>
        <mxCell id="ZztepuW2MVFX9YXNAIIB-52" value="Провести оплату" style="ellipse;whiteSpace=wrap;html=1;" vertex="1" parent="1">
          <mxGeometry x="413" y="1410" width="170" height="70" as="geometry" />
        </mxCell>
        <mxCell id="ZztepuW2MVFX9YXNAIIB-53" value="Изменить статус заказа" style="ellipse;whiteSpace=wrap;html=1;" vertex="1" parent="1">
          <mxGeometry x="490" y="1478" width="170" height="50" as="geometry" />
        </mxCell>
        <mxCell id="ZztepuW2MVFX9YXNAIIB-54" value="Формирование отчёта за смену" style="ellipse;whiteSpace=wrap;html=1;" vertex="1" parent="1">
          <mxGeometry x="350" y="1610" width="170" height="70" as="geometry" />
        </mxCell>
        <mxCell id="ZztepuW2MVFX9YXNAIIB-57" value="" style="endArrow=none;html=1;rounded=0;entryX=0.5;entryY=0.5;entryDx=0;entryDy=0;entryPerimeter=0;exitX=1;exitY=0.5;exitDx=0;exitDy=0;" edge="1" parent="1" source="ZztepuW2MVFX9YXNAIIB-52" target="ZztepuW2MVFX9YXNAIIB-48">
          <mxGeometry width="50" height="50" relative="1" as="geometry">
            <mxPoint x="730" y="1547" as="sourcePoint" />
            <mxPoint x="825" y="1330" as="targetPoint" />
          </mxGeometry>
        </mxCell>
        <mxCell id="ZztepuW2MVFX9YXNAIIB-58" value="" style="endArrow=none;html=1;rounded=0;entryX=0.5;entryY=0.5;entryDx=0;entryDy=0;entryPerimeter=0;exitX=1;exitY=0.5;exitDx=0;exitDy=0;" edge="1" parent="1" source="ZztepuW2MVFX9YXNAIIB-50" target="ZztepuW2MVFX9YXNAIIB-48">
          <mxGeometry width="50" height="50" relative="1" as="geometry">
            <mxPoint x="690" y="1446" as="sourcePoint" />
            <mxPoint x="855" y="1290" as="targetPoint" />
          </mxGeometry>
        </mxCell>
        <mxCell id="ZztepuW2MVFX9YXNAIIB-59" value="" style="endArrow=none;html=1;rounded=0;entryX=0;entryY=0.5;entryDx=0;entryDy=0;exitX=0.5;exitY=0.5;exitDx=0;exitDy=0;exitPerimeter=0;" edge="1" parent="1" source="ZztepuW2MVFX9YXNAIIB-42" target="ZztepuW2MVFX9YXNAIIB-49">
          <mxGeometry width="50" height="50" relative="1" as="geometry">
            <mxPoint x="230" y="1270" as="sourcePoint" />
            <mxPoint x="535" y="1260" as="targetPoint" />
          </mxGeometry>
        </mxCell>
        <mxCell id="ZztepuW2MVFX9YXNAIIB-60" value="" style="endArrow=none;html=1;rounded=0;entryX=0;entryY=0.5;entryDx=0;entryDy=0;exitX=0.5;exitY=0.5;exitDx=0;exitDy=0;exitPerimeter=0;" edge="1" parent="1" source="ZztepuW2MVFX9YXNAIIB-42" target="ZztepuW2MVFX9YXNAIIB-50">
          <mxGeometry width="50" height="50" relative="1" as="geometry">
            <mxPoint x="300" y="1308" as="sourcePoint" />
            <mxPoint x="575" y="1290" as="targetPoint" />
          </mxGeometry>
        </mxCell>
        <mxCell id="ZztepuW2MVFX9YXNAIIB-61" value="" style="endArrow=none;html=1;rounded=0;entryX=0;entryY=0.5;entryDx=0;entryDy=0;exitX=0.5;exitY=0.5;exitDx=0;exitDy=0;exitPerimeter=0;" edge="1" parent="1" source="ZztepuW2MVFX9YXNAIIB-42" target="ZztepuW2MVFX9YXNAIIB-51">
          <mxGeometry width="50" height="50" relative="1" as="geometry">
            <mxPoint x="290" y="1320" as="sourcePoint" />
            <mxPoint x="495" y="1356" as="targetPoint" />
          </mxGeometry>
        </mxCell>
        <mxCell id="ZztepuW2MVFX9YXNAIIB-62" value="" style="endArrow=none;html=1;rounded=0;entryX=0;entryY=0.5;entryDx=0;entryDy=0;exitX=0.5;exitY=0.5;exitDx=0;exitDy=0;exitPerimeter=0;" edge="1" parent="1" source="ZztepuW2MVFX9YXNAIIB-42" target="ZztepuW2MVFX9YXNAIIB-52">
          <mxGeometry width="50" height="50" relative="1" as="geometry">
            <mxPoint x="270" y="1310" as="sourcePoint" />
            <mxPoint x="545" y="1403" as="targetPoint" />
          </mxGeometry>
        </mxCell>
        <mxCell id="ZztepuW2MVFX9YXNAIIB-63" value="" style="endArrow=none;html=1;rounded=0;entryX=0;entryY=0.5;entryDx=0;entryDy=0;exitX=0.5;exitY=0.5;exitDx=0;exitDy=0;exitPerimeter=0;" edge="1" parent="1" source="ZztepuW2MVFX9YXNAIIB-42" target="ZztepuW2MVFX9YXNAIIB-53">
          <mxGeometry width="50" height="50" relative="1" as="geometry">
            <mxPoint x="360" y="1410" as="sourcePoint" />
            <mxPoint x="565" y="1566" as="targetPoint" />
          </mxGeometry>
        </mxCell>
        <mxCell id="ZztepuW2MVFX9YXNAIIB-64" value="" style="endArrow=none;html=1;rounded=0;entryX=0;entryY=0.5;entryDx=0;entryDy=0;exitX=0.5;exitY=0.5;exitDx=0;exitDy=0;exitPerimeter=0;" edge="1" parent="1" source="ZztepuW2MVFX9YXNAIIB-42" target="ZztepuW2MVFX9YXNAIIB-54">
          <mxGeometry width="50" height="50" relative="1" as="geometry">
            <mxPoint x="240" y="1340" as="sourcePoint" />
            <mxPoint x="445" y="1496" as="targetPoint" />
          </mxGeometry>
        </mxCell>
        <mxCell id="ZztepuW2MVFX9YXNAIIB-66" value="Верификация пароля" style="ellipse;whiteSpace=wrap;html=1;" vertex="1" parent="1">
          <mxGeometry x="630" y="1180" width="150" height="30" as="geometry" />
        </mxCell>
        <mxCell id="ZztepuW2MVFX9YXNAIIB-67" value="Отобразить ошибку входа" style="ellipse;whiteSpace=wrap;html=1;" vertex="1" parent="1">
          <mxGeometry x="630" y="1220" width="150" height="50" as="geometry" />
        </mxCell>
        <mxCell id="ZztepuW2MVFX9YXNAIIB-68" value="includes" style="endArrow=block;endSize=16;endFill=0;html=1;rounded=0;entryX=0;entryY=0.5;entryDx=0;entryDy=0;" edge="1" parent="1" source="ZztepuW2MVFX9YXNAIIB-45" target="ZztepuW2MVFX9YXNAIIB-66">
          <mxGeometry width="160" relative="1" as="geometry">
            <mxPoint x="720" y="1250" as="sourcePoint" />
            <mxPoint x="610" y="1200" as="targetPoint" />
          </mxGeometry>
        </mxCell>
        <mxCell id="ZztepuW2MVFX9YXNAIIB-69" value="Открытие и закрытие смены" style="ellipse;whiteSpace=wrap;html=1;" vertex="1" parent="1">
          <mxGeometry x="505" y="1543" width="150" height="40" as="geometry" />
        </mxCell>
        <mxCell id="ZztepuW2MVFX9YXNAIIB-72" value="includes" style="endArrow=block;endSize=16;endFill=0;html=1;rounded=0;" edge="1" parent="1" source="ZztepuW2MVFX9YXNAIIB-51" target="ZztepuW2MVFX9YXNAIIB-50">
          <mxGeometry x="-0.1499" y="2" width="160" relative="1" as="geometry">
            <mxPoint x="550" y="1400" as="sourcePoint" />
            <mxPoint x="576" y="1370" as="targetPoint" />
            <mxPoint as="offset" />
          </mxGeometry>
        </mxCell>
        <mxCell id="ZztepuW2MVFX9YXNAIIB-73" value="" style="endArrow=none;html=1;rounded=0;entryX=0;entryY=0.5;entryDx=0;entryDy=0;exitX=0.5;exitY=0.5;exitDx=0;exitDy=0;exitPerimeter=0;" edge="1" parent="1" source="ZztepuW2MVFX9YXNAIIB-42" target="ZztepuW2MVFX9YXNAIIB-69">
          <mxGeometry width="50" height="50" relative="1" as="geometry">
            <mxPoint x="340" y="1510" as="sourcePoint" />
            <mxPoint x="448" y="1735" as="targetPoint" />
          </mxGeometry>
        </mxCell>
        <mxCell id="ZztepuW2MVFX9YXNAIIB-74" value="includes" style="endArrow=block;endSize=16;endFill=0;html=1;rounded=0;" edge="1" parent="1" source="ZztepuW2MVFX9YXNAIIB-69" target="ZztepuW2MVFX9YXNAIIB-54">
          <mxGeometry x="-0.1499" y="2" width="160" relative="1" as="geometry">
            <mxPoint x="617" y="1637" as="sourcePoint" />
            <mxPoint x="530" y="1620" as="targetPoint" />
            <mxPoint as="offset" />
          </mxGeometry>
        </mxCell>
        <mxCell id="ZztepuW2MVFX9YXNAIIB-75" value="" style="endArrow=none;html=1;rounded=0;entryX=0.5;entryY=0.5;entryDx=0;entryDy=0;entryPerimeter=0;exitX=1;exitY=0.5;exitDx=0;exitDy=0;" edge="1" parent="1" source="ZztepuW2MVFX9YXNAIIB-49" target="ZztepuW2MVFX9YXNAIIB-48">
          <mxGeometry width="50" height="50" relative="1" as="geometry">
            <mxPoint x="600" y="1280" as="sourcePoint" />
            <mxPoint x="927" y="1336" as="targetPoint" />
          </mxGeometry>
        </mxCell>
        <mxCell id="ZztepuW2MVFX9YXNAIIB-76" value="Администратор&lt;br&gt;точки" style="shape=umlActor;verticalLabelPosition=bottom;verticalAlign=top;html=1;outlineConnect=0;" vertex="1" parent="1">
          <mxGeometry x="1200" y="550" width="30" height="60" as="geometry" />
        </mxCell>
        <mxCell id="ZztepuW2MVFX9YXNAIIB-77" value="" style="rounded=0;whiteSpace=wrap;html=1;" vertex="1" parent="1">
          <mxGeometry x="1273" y="310" width="467" height="440" as="geometry" />
        </mxCell>
        <mxCell id="ZztepuW2MVFX9YXNAIIB-78" value="Информационная система сети франчайзинговых кофеен" style="text;html=1;align=center;verticalAlign=middle;whiteSpace=wrap;rounded=0;" vertex="1" parent="1">
          <mxGeometry x="1336.5" y="310" width="340" height="30" as="geometry" />
        </mxCell>
        <mxCell id="ZztepuW2MVFX9YXNAIIB-79" value="Авторизация в веб-кабинете" style="ellipse;whiteSpace=wrap;html=1;" vertex="1" parent="1">
          <mxGeometry x="1300" y="350" width="170" height="50" as="geometry" />
        </mxCell>
        <mxCell id="ZztepuW2MVFX9YXNAIIB-80" value="" style="endArrow=none;html=1;rounded=0;exitX=0.5;exitY=0.5;exitDx=0;exitDy=0;exitPerimeter=0;entryX=0;entryY=0.5;entryDx=0;entryDy=0;" edge="1" parent="1" source="ZztepuW2MVFX9YXNAIIB-76" target="ZztepuW2MVFX9YXNAIIB-79">
          <mxGeometry width="50" height="50" relative="1" as="geometry">
            <mxPoint x="1343" y="490" as="sourcePoint" />
            <mxPoint x="1393" y="440" as="targetPoint" />
          </mxGeometry>
        </mxCell>
        <mxCell id="ZztepuW2MVFX9YXNAIIB-81" value="extends" style="endArrow=block;endSize=16;endFill=0;html=1;rounded=0;exitX=0;exitY=0.5;exitDx=0;exitDy=0;entryX=0.935;entryY=0.726;entryDx=0;entryDy=0;entryPerimeter=0;" edge="1" parent="1" source="ZztepuW2MVFX9YXNAIIB-98" target="ZztepuW2MVFX9YXNAIIB-79">
          <mxGeometry width="160" relative="1" as="geometry">
            <mxPoint x="1552.68" y="340" as="sourcePoint" />
            <mxPoint x="1613" y="285.68000000000006" as="targetPoint" />
          </mxGeometry>
        </mxCell>
        <mxCell id="ZztepuW2MVFX9YXNAIIB-83" value="Добавление и редактирование сотрудников" style="ellipse;whiteSpace=wrap;html=1;" vertex="1" parent="1">
          <mxGeometry x="1352" y="407" width="170" height="50" as="geometry" />
        </mxCell>
        <mxCell id="ZztepuW2MVFX9YXNAIIB-84" value="Настройка меню и&lt;div&gt;цен своей точки&lt;/div&gt;" style="ellipse;whiteSpace=wrap;html=1;" vertex="1" parent="1">
          <mxGeometry x="1308" y="477" width="170" height="43" as="geometry" />
        </mxCell>
        <mxCell id="ZztepuW2MVFX9YXNAIIB-85" value="Просмотр статистики продаж" style="ellipse;whiteSpace=wrap;html=1;" vertex="1" parent="1">
          <mxGeometry x="1481" y="492" width="170" height="50" as="geometry" />
        </mxCell>
        <mxCell id="ZztepuW2MVFX9YXNAIIB-86" value="Анализ клиентской активности" style="ellipse;whiteSpace=wrap;html=1;" vertex="1" parent="1">
          <mxGeometry x="1353" y="570" width="170" height="70" as="geometry" />
        </mxCell>
        <mxCell id="ZztepuW2MVFX9YXNAIIB-87" value="Управление локальными акциями и скидками" style="ellipse;whiteSpace=wrap;html=1;" vertex="1" parent="1">
          <mxGeometry x="1430" y="638" width="170" height="50" as="geometry" />
        </mxCell>
        <mxCell id="ZztepuW2MVFX9YXNAIIB-91" value="" style="endArrow=none;html=1;rounded=0;entryX=0;entryY=0.5;entryDx=0;entryDy=0;exitX=0.5;exitY=0.5;exitDx=0;exitDy=0;exitPerimeter=0;" edge="1" parent="1" source="ZztepuW2MVFX9YXNAIIB-76" target="ZztepuW2MVFX9YXNAIIB-83">
          <mxGeometry width="50" height="50" relative="1" as="geometry">
            <mxPoint x="1203" y="430" as="sourcePoint" />
            <mxPoint x="1508" y="420" as="targetPoint" />
          </mxGeometry>
        </mxCell>
        <mxCell id="ZztepuW2MVFX9YXNAIIB-92" value="" style="endArrow=none;html=1;rounded=0;entryX=0;entryY=0.5;entryDx=0;entryDy=0;exitX=0.5;exitY=0.5;exitDx=0;exitDy=0;exitPerimeter=0;" edge="1" parent="1" source="ZztepuW2MVFX9YXNAIIB-76" target="ZztepuW2MVFX9YXNAIIB-84">
          <mxGeometry width="50" height="50" relative="1" as="geometry">
            <mxPoint x="1273" y="468" as="sourcePoint" />
            <mxPoint x="1548" y="450" as="targetPoint" />
          </mxGeometry>
        </mxCell>
        <mxCell id="ZztepuW2MVFX9YXNAIIB-93" value="" style="endArrow=none;html=1;rounded=0;entryX=0;entryY=0.5;entryDx=0;entryDy=0;exitX=0.5;exitY=0.5;exitDx=0;exitDy=0;exitPerimeter=0;" edge="1" parent="1" source="ZztepuW2MVFX9YXNAIIB-76" target="ZztepuW2MVFX9YXNAIIB-85">
          <mxGeometry width="50" height="50" relative="1" as="geometry">
            <mxPoint x="1263" y="480" as="sourcePoint" />
            <mxPoint x="1468" y="516" as="targetPoint" />
          </mxGeometry>
        </mxCell>
        <mxCell id="ZztepuW2MVFX9YXNAIIB-94" value="" style="endArrow=none;html=1;rounded=0;entryX=0;entryY=0.5;entryDx=0;entryDy=0;exitX=0.5;exitY=0.5;exitDx=0;exitDy=0;exitPerimeter=0;" edge="1" parent="1" source="ZztepuW2MVFX9YXNAIIB-76" target="ZztepuW2MVFX9YXNAIIB-86">
          <mxGeometry width="50" height="50" relative="1" as="geometry">
            <mxPoint x="1243" y="470" as="sourcePoint" />
            <mxPoint x="1518" y="563" as="targetPoint" />
          </mxGeometry>
        </mxCell>
        <mxCell id="ZztepuW2MVFX9YXNAIIB-95" value="" style="endArrow=none;html=1;rounded=0;entryX=0;entryY=0.5;entryDx=0;entryDy=0;exitX=0.5;exitY=0.5;exitDx=0;exitDy=0;exitPerimeter=0;" edge="1" parent="1" source="ZztepuW2MVFX9YXNAIIB-76" target="ZztepuW2MVFX9YXNAIIB-87">
          <mxGeometry width="50" height="50" relative="1" as="geometry">
            <mxPoint x="1333" y="570" as="sourcePoint" />
            <mxPoint x="1538" y="726" as="targetPoint" />
          </mxGeometry>
        </mxCell>
        <mxCell id="ZztepuW2MVFX9YXNAIIB-97" value="Верификация пароля" style="ellipse;whiteSpace=wrap;html=1;" vertex="1" parent="1">
          <mxGeometry x="1570" y="340" width="150" height="30" as="geometry" />
        </mxCell>
        <mxCell id="ZztepuW2MVFX9YXNAIIB-98" value="Отобразить ошибку входа" style="ellipse;whiteSpace=wrap;html=1;" vertex="1" parent="1">
          <mxGeometry x="1570" y="380" width="150" height="50" as="geometry" />
        </mxCell>
        <mxCell id="ZztepuW2MVFX9YXNAIIB-99" value="includes" style="endArrow=block;endSize=16;endFill=0;html=1;rounded=0;entryX=0;entryY=0.5;entryDx=0;entryDy=0;" edge="1" parent="1" source="ZztepuW2MVFX9YXNAIIB-79" target="ZztepuW2MVFX9YXNAIIB-97">
          <mxGeometry width="160" relative="1" as="geometry">
            <mxPoint x="1693" y="410" as="sourcePoint" />
            <mxPoint x="1583" y="360" as="targetPoint" />
          </mxGeometry>
        </mxCell>
        <mxCell id="ZztepuW2MVFX9YXNAIIB-100" value="Мониторинг работы смен" style="ellipse;whiteSpace=wrap;html=1;" vertex="1" parent="1">
          <mxGeometry x="1347" y="688" width="150" height="40" as="geometry" />
        </mxCell>
        <mxCell id="ZztepuW2MVFX9YXNAIIB-102" value="" style="endArrow=none;html=1;rounded=0;entryX=0;entryY=0.5;entryDx=0;entryDy=0;exitX=0.5;exitY=0.5;exitDx=0;exitDy=0;exitPerimeter=0;" edge="1" parent="1" source="ZztepuW2MVFX9YXNAIIB-76" target="ZztepuW2MVFX9YXNAIIB-100">
          <mxGeometry width="50" height="50" relative="1" as="geometry">
            <mxPoint x="1313" y="670" as="sourcePoint" />
            <mxPoint x="1421" y="895" as="targetPoint" />
          </mxGeometry>
        </mxCell>
        <mxCell id="ZztepuW2MVFX9YXNAIIB-105" value="includes" style="endArrow=block;endSize=16;endFill=0;html=1;rounded=0;" edge="1" parent="1" source="ZztepuW2MVFX9YXNAIIB-86" target="ZztepuW2MVFX9YXNAIIB-85">
          <mxGeometry x="-0.3532" y="-2" width="160" relative="1" as="geometry">
            <mxPoint x="1570" y="561" as="sourcePoint" />
            <mxPoint x="1675" y="550" as="targetPoint" />
            <mxPoint as="offset" />
          </mxGeometry>
        </mxCell>
        <mxCell id="ZztepuW2MVFX9YXNAIIB-106" value="Главный&lt;br&gt;администратор" style="shape=umlActor;verticalLabelPosition=bottom;verticalAlign=top;html=1;outlineConnect=0;" vertex="1" parent="1">
          <mxGeometry x="1180" y="1455" width="30" height="60" as="geometry" />
        </mxCell>
        <mxCell id="ZztepuW2MVFX9YXNAIIB-107" value="" style="rounded=0;whiteSpace=wrap;html=1;" vertex="1" parent="1">
          <mxGeometry x="1253" y="1240" width="507" height="490" as="geometry" />
        </mxCell>
        <mxCell id="ZztepuW2MVFX9YXNAIIB-108" value="Информационная система сети франчайзинговых кофеен" style="text;html=1;align=center;verticalAlign=middle;whiteSpace=wrap;rounded=0;" vertex="1" parent="1">
          <mxGeometry x="1336.5" y="1240" width="340" height="30" as="geometry" />
        </mxCell>
        <mxCell id="ZztepuW2MVFX9YXNAIIB-109" value="Авторизация в веб-кабинете" style="ellipse;whiteSpace=wrap;html=1;" vertex="1" parent="1">
          <mxGeometry x="1280" y="1280" width="170" height="50" as="geometry" />
        </mxCell>
        <mxCell id="ZztepuW2MVFX9YXNAIIB-110" value="" style="endArrow=none;html=1;rounded=0;exitX=0.5;exitY=0.5;exitDx=0;exitDy=0;exitPerimeter=0;entryX=0;entryY=0.5;entryDx=0;entryDy=0;" edge="1" parent="1" source="ZztepuW2MVFX9YXNAIIB-106" target="ZztepuW2MVFX9YXNAIIB-109">
          <mxGeometry width="50" height="50" relative="1" as="geometry">
            <mxPoint x="1323" y="1420" as="sourcePoint" />
            <mxPoint x="1373" y="1370" as="targetPoint" />
          </mxGeometry>
        </mxCell>
        <mxCell id="ZztepuW2MVFX9YXNAIIB-111" value="extends" style="endArrow=block;endSize=16;endFill=0;html=1;rounded=0;exitX=0;exitY=0.5;exitDx=0;exitDy=0;entryX=0.935;entryY=0.726;entryDx=0;entryDy=0;entryPerimeter=0;" edge="1" parent="1" source="ZztepuW2MVFX9YXNAIIB-123" target="ZztepuW2MVFX9YXNAIIB-109">
          <mxGeometry width="160" relative="1" as="geometry">
            <mxPoint x="1532.68" y="1270" as="sourcePoint" />
            <mxPoint x="1593" y="1215.68" as="targetPoint" />
          </mxGeometry>
        </mxCell>
        <mxCell id="ZztepuW2MVFX9YXNAIIB-112" value="Добавление новых точек" style="ellipse;whiteSpace=wrap;html=1;" vertex="1" parent="1">
          <mxGeometry x="1332" y="1337" width="170" height="50" as="geometry" />
        </mxCell>
        <mxCell id="ZztepuW2MVFX9YXNAIIB-113" value="Управление глобальными акциями" style="ellipse;whiteSpace=wrap;html=1;" vertex="1" parent="1">
          <mxGeometry x="1288" y="1407" width="170" height="43" as="geometry" />
        </mxCell>
        <mxCell id="ZztepuW2MVFX9YXNAIIB-114" value="&lt;div&gt;&lt;span style=&quot;background-color: transparent; color: light-dark(rgb(0, 0, 0), rgb(255, 255, 255));&quot;&gt;Управление системой лояльности (алгоритмы начисления)&lt;/span&gt;&lt;/div&gt;" style="ellipse;whiteSpace=wrap;html=1;" vertex="1" parent="1">
          <mxGeometry x="1461" y="1422" width="170" height="50" as="geometry" />
        </mxCell>
        <mxCell id="ZztepuW2MVFX9YXNAIIB-115" value="Просмотр общей статистики по всей сети" style="ellipse;whiteSpace=wrap;html=1;" vertex="1" parent="1">
          <mxGeometry x="1324" y="1491" width="170" height="70" as="geometry" />
        </mxCell>
        <mxCell id="ZztepuW2MVFX9YXNAIIB-116" value="Управление ролями и доступом администраторов" style="ellipse;whiteSpace=wrap;html=1;" vertex="1" parent="1">
          <mxGeometry x="1410" y="1568" width="170" height="50" as="geometry" />
        </mxCell>
        <mxCell id="ZztepuW2MVFX9YXNAIIB-117" value="" style="endArrow=none;html=1;rounded=0;entryX=0;entryY=0.5;entryDx=0;entryDy=0;exitX=0.5;exitY=0.5;exitDx=0;exitDy=0;exitPerimeter=0;" edge="1" parent="1" source="ZztepuW2MVFX9YXNAIIB-106" target="ZztepuW2MVFX9YXNAIIB-112">
          <mxGeometry width="50" height="50" relative="1" as="geometry">
            <mxPoint x="1183" y="1360" as="sourcePoint" />
            <mxPoint x="1488" y="1350" as="targetPoint" />
          </mxGeometry>
        </mxCell>
        <mxCell id="ZztepuW2MVFX9YXNAIIB-118" value="" style="endArrow=none;html=1;rounded=0;entryX=0;entryY=0.5;entryDx=0;entryDy=0;exitX=0.5;exitY=0.5;exitDx=0;exitDy=0;exitPerimeter=0;" edge="1" parent="1" source="ZztepuW2MVFX9YXNAIIB-106" target="ZztepuW2MVFX9YXNAIIB-113">
          <mxGeometry width="50" height="50" relative="1" as="geometry">
            <mxPoint x="1253" y="1398" as="sourcePoint" />
            <mxPoint x="1528" y="1380" as="targetPoint" />
          </mxGeometry>
        </mxCell>
        <mxCell id="ZztepuW2MVFX9YXNAIIB-119" value="" style="endArrow=none;html=1;rounded=0;entryX=0;entryY=0.5;entryDx=0;entryDy=0;exitX=0.5;exitY=0.5;exitDx=0;exitDy=0;exitPerimeter=0;" edge="1" parent="1" source="ZztepuW2MVFX9YXNAIIB-106" target="ZztepuW2MVFX9YXNAIIB-114">
          <mxGeometry width="50" height="50" relative="1" as="geometry">
            <mxPoint x="1243" y="1410" as="sourcePoint" />
            <mxPoint x="1448" y="1446" as="targetPoint" />
          </mxGeometry>
        </mxCell>
        <mxCell id="ZztepuW2MVFX9YXNAIIB-120" value="" style="endArrow=none;html=1;rounded=0;entryX=0;entryY=0.5;entryDx=0;entryDy=0;exitX=0.5;exitY=0.5;exitDx=0;exitDy=0;exitPerimeter=0;" edge="1" parent="1" source="ZztepuW2MVFX9YXNAIIB-106" target="ZztepuW2MVFX9YXNAIIB-115">
          <mxGeometry width="50" height="50" relative="1" as="geometry">
            <mxPoint x="1223" y="1400" as="sourcePoint" />
            <mxPoint x="1498" y="1493" as="targetPoint" />
          </mxGeometry>
        </mxCell>
        <mxCell id="ZztepuW2MVFX9YXNAIIB-121" value="" style="endArrow=none;html=1;rounded=0;entryX=0;entryY=0.5;entryDx=0;entryDy=0;exitX=0.5;exitY=0.5;exitDx=0;exitDy=0;exitPerimeter=0;" edge="1" parent="1" source="ZztepuW2MVFX9YXNAIIB-106" target="ZztepuW2MVFX9YXNAIIB-116">
          <mxGeometry width="50" height="50" relative="1" as="geometry">
            <mxPoint x="1313" y="1500" as="sourcePoint" />
            <mxPoint x="1518" y="1656" as="targetPoint" />
          </mxGeometry>
        </mxCell>
        <mxCell id="ZztepuW2MVFX9YXNAIIB-122" value="Верификация пароля" style="ellipse;whiteSpace=wrap;html=1;" vertex="1" parent="1">
          <mxGeometry x="1550" y="1270" width="150" height="30" as="geometry" />
        </mxCell>
        <mxCell id="ZztepuW2MVFX9YXNAIIB-123" value="Отобразить ошибку входа" style="ellipse;whiteSpace=wrap;html=1;" vertex="1" parent="1">
          <mxGeometry x="1550" y="1310" width="150" height="50" as="geometry" />
        </mxCell>
        <mxCell id="ZztepuW2MVFX9YXNAIIB-124" value="includes" style="endArrow=block;endSize=16;endFill=0;html=1;rounded=0;entryX=0;entryY=0.5;entryDx=0;entryDy=0;" edge="1" parent="1" source="ZztepuW2MVFX9YXNAIIB-109" target="ZztepuW2MVFX9YXNAIIB-122">
          <mxGeometry width="160" relative="1" as="geometry">
            <mxPoint x="1673" y="1340" as="sourcePoint" />
            <mxPoint x="1563" y="1290" as="targetPoint" />
          </mxGeometry>
        </mxCell>
        <mxCell id="ZztepuW2MVFX9YXNAIIB-125" value="Просмотр и аудит действий пользователей (логирование)" style="ellipse;whiteSpace=wrap;html=1;" vertex="1" parent="1">
          <mxGeometry x="1299" y="1609" width="150" height="78" as="geometry" />
        </mxCell>
        <mxCell id="ZztepuW2MVFX9YXNAIIB-126" value="" style="endArrow=none;html=1;rounded=0;entryX=0;entryY=0.5;entryDx=0;entryDy=0;exitX=0.5;exitY=0.5;exitDx=0;exitDy=0;exitPerimeter=0;" edge="1" parent="1" source="ZztepuW2MVFX9YXNAIIB-106" target="ZztepuW2MVFX9YXNAIIB-125">
          <mxGeometry width="50" height="50" relative="1" as="geometry">
            <mxPoint x="1293" y="1600" as="sourcePoint" />
            <mxPoint x="1401" y="1825" as="targetPoint" />
          </mxGeometry>
        </mxCell>
        <mxCell id="ZztepuW2MVFX9YXNAIIB-128" value="Создать глобальный&lt;div&gt;отчёт о продажах&lt;/div&gt;" style="ellipse;whiteSpace=wrap;html=1;" vertex="1" parent="1">
          <mxGeometry x="1575" y="1470" width="170" height="50" as="geometry" />
        </mxCell>
        <mxCell id="ZztepuW2MVFX9YXNAIIB-129" value="extends" style="endArrow=block;endSize=16;endFill=0;html=1;rounded=0;" edge="1" parent="1" source="ZztepuW2MVFX9YXNAIIB-128" target="ZztepuW2MVFX9YXNAIIB-115">
          <mxGeometry width="160" relative="1" as="geometry">
            <mxPoint x="1681" y="1549" as="sourcePoint" />
            <mxPoint x="1570" y="1530" as="targetPoint" />
          </mxGeometry>
        </mxCell>
        <mxCell id="ZztepuW2MVFX9YXNAIIB-131" value="Опубликовать уведомление для всех администраторов" style="ellipse;whiteSpace=wrap;html=1;" vertex="1" parent="1">
          <mxGeometry x="1547" y="1656" width="170" height="50" as="geometry" />
        </mxCell>
        <mxCell id="ZztepuW2MVFX9YXNAIIB-132" value="extends" style="endArrow=block;endSize=16;endFill=0;html=1;rounded=0;" edge="1" parent="1" source="ZztepuW2MVFX9YXNAIIB-131" target="ZztepuW2MVFX9YXNAIIB-116">
          <mxGeometry width="160" relative="1" as="geometry">
            <mxPoint x="1649" y="1590" as="sourcePoint" />
            <mxPoint x="1560" y="1605" as="targetPoint" />
          </mxGeometry>
        </mxCell>
      </root>
    </mxGraphModel>
  </diagram>
</mxfile>
